<svg xmlns="http://www.w3.org/2000/svg" width="10.612" height="17" viewBox="0 0 10.612 17"><defs><style>.a{fill:#ffc843;}.b{fill:#fff;}.c{fill:#76ffd9;}.d{fill:#434c54;}</style></defs><path class="a" d="M17.613,8.986v.644L12.5,10.5l-5-.873V8.986A1.485,1.485,0,0,1,8.985,7.5h7.143a1.486,1.486,0,0,1,1.486,1.486Zm0,0" transform="translate(-7.25 -7.251)"/><path class="a" d="M17.614,409.658v.733a1.486,1.486,0,0,1-1.486,1.485H8.985A1.485,1.485,0,0,1,7.5,410.391v-.733l5.057-.963Zm0,0" transform="translate(-7.251 -395.125)"/><path class="b" d="M17.614,71.629V83.778s-10.1.006-10.1.006a.012.012,0,0,1-.012-.012V71.641a.012.012,0,0,1,.012-.012Zm0,0" transform="translate(-7.251 -69.251)"/><path class="c" d="M62.434,77.44v6.343H53.859l7.321-12.1v-.054h1.254Zm0,0" transform="translate(-52.071 -69.251)"/><path class="b" d="M145.492,456.066a.492.492,0,1,0,.492.492A.492.492,0,0,0,145.492,456.066Zm0,.521a.029.029,0,1,1,.029-.029A.029.029,0,0,1,145.492,456.587Zm0,0" transform="translate(-140.186 -440.923)"/><path class="d" d="M9.022,0H8.529a.249.249,0,1,0,0,.5h.493A1.094,1.094,0,0,1,10.115,1.59V15.41A1.094,1.094,0,0,1,9.022,16.5H1.591A1.094,1.094,0,0,1,.5,15.41V1.59A1.094,1.094,0,0,1,1.591.5h5.95a.249.249,0,0,0,0-.5H1.591A1.592,1.592,0,0,0,0,1.59V15.41A1.592,1.592,0,0,0,1.591,17H9.022a1.592,1.592,0,0,0,1.59-1.59V1.59A1.592,1.592,0,0,0,9.022,0Zm0,0" transform="translate(-0.001)"/></svg>