<svg xmlns="http://www.w3.org/2000/svg" width="50" height="50" viewBox="0 0 50 50"><defs><style>.a{fill:#a998a4;}.b{fill:#e0e0e2;}.c{fill:#c6c5ca;}.d{fill:#817b7f;}.e{fill:#fff;}.f{fill:#d5dfe5;}.g{fill:#ee3f5a;}.h{fill:#dc0042;}</style></defs><g transform="translate(-2 -2)"><path class="a" d="M39,3H55.667V13.833H39Z" transform="translate(-6.167 -0.167)"/><path class="b" d="M19.667,53v1.667A1.672,1.672,0,0,1,18,56.333H4.667A1.672,1.672,0,0,1,3,54.667V53Z" transform="translate(-0.167 -8.5)"/><path class="a" d="M19.667,44.667v6.667H3V44.667A1.672,1.672,0,0,1,4.667,43H18a1.672,1.672,0,0,1,1.667,1.667Z" transform="translate(-0.167 -6.833)"/><path class="b" d="M14.79,57l.817,3.333H9.09L9.907,57Z" transform="translate(-1.182 -9.167)"/><path class="c" d="M22.333,53v1.667a1.672,1.672,0,0,1-1.667,1.667H19a1.672,1.672,0,0,0,1.667-1.667V53Z" transform="translate(-2.833 -8.5)"/><path class="d" d="M22.333,44.667v6.667H20.667V44.667A1.672,1.672,0,0,0,19,43h1.667A1.672,1.672,0,0,1,22.333,44.667Z" transform="translate(-2.833 -6.833)"/><path class="c" d="M16.413,60.333H14.747L13.93,57H15.6Z" transform="translate(-1.988 -9.167)"/><path class="b" d="M56.92,15l-.733,3.333H37.853L37.12,15h8.233v.833h3.333V15H56.92Z" transform="translate(-5.853 -2.167)"/><path class="d" d="M57,3h1.667V13.833H57Z" transform="translate(-9.167 -0.167)"/><path class="b" d="M56.92,15l-.733,3.333H37.853L37.12,15h8.233v.833h3.333V15H56.92Z" transform="translate(-5.853 -2.167)"/><path class="c" d="M60.4,15l-.733,3.333H58L58.733,15Z" transform="translate(-9.333 -2.167)"/><path class="e" d="M35.958,32.258a5.018,5.018,0,0,1-.283.692L37.35,35.1,35.1,37.35l-2.15-1.675a5.018,5.018,0,0,1-.692.283l-.342,2.708H28.75l-.342-2.708a5.018,5.018,0,0,1-.692-.283l-2.15,1.675-2.25-2.25,1.675-2.15a5.018,5.018,0,0,1-.283-.692L22,31.917V28.75l2.708-.342a5.018,5.018,0,0,1,.283-.692l-1.675-2.15,2.25-2.25,2.15,1.675a5.018,5.018,0,0,1,.692-.283L28.75,22h3.167l.342,2.708a5.018,5.018,0,0,1,.692.283l2.15-1.675,2.25,2.25-1.675,2.15a5.018,5.018,0,0,1,.283.692l2.708.342v3.167Z" transform="translate(-3.333 -3.333)"/><path class="f" d="M36.443,32.678a5.018,5.018,0,0,1-.283.692l1.675,2.15-2.25,2.25L33.435,36.1a5.018,5.018,0,0,1-.692.283L32.4,39.087H29.235l-.342-2.708A5.018,5.018,0,0,1,28.2,36.1l-2.15,1.675L24.91,36.628a17.773,17.773,0,0,0,8.408-5.875,17.434,17.434,0,0,0,3.05-6.233l1.467,1.467-1.675,2.15a5.018,5.018,0,0,1,.283.692l2.708.342v3.167Z" transform="translate(-3.818 -3.753)"/><circle class="e" cx="3.333" cy="3.333" r="3.333" transform="translate(23.667 23.667)"/><rect class="g" width="13.333" height="16.667" rx="2" transform="translate(2.833 2.833)"/><rect class="g" width="10" height="16.667" rx="2" transform="translate(41.167 34.5)"/><path class="e" d="M57,41v.833A1.672,1.672,0,0,1,55.333,43.5H53.667A1.672,1.672,0,0,1,52,41.833V41Z" transform="translate(-8.333 -6.5)"/><path class="h" d="M60.333,42.667V56a1.672,1.672,0,0,1-1.667,1.667H57A1.672,1.672,0,0,0,58.667,56V42.667A1.672,1.672,0,0,0,57,41h1.667A1.672,1.672,0,0,1,60.333,42.667Z" transform="translate(-9.167 -6.5)"/><path class="f" d="M57.333,41v.833A1.672,1.672,0,0,1,55.667,43.5H54a1.672,1.672,0,0,0,1.667-1.667V41Z" transform="translate(-8.667 -6.5)"/><path class="h" d="M18,4.667V18a1.672,1.672,0,0,1-1.667,1.667H13A1.672,1.672,0,0,0,14.667,18V4.667A1.672,1.672,0,0,0,13,3h3.333A1.672,1.672,0,0,1,18,4.667Z" transform="translate(-1.833 -0.167)"/><path class="f" d="M34.727,31.393A3.329,3.329,0,0,1,28.36,32.76a3.276,3.276,0,0,0,1.367.3,3.333,3.333,0,0,0,3.333-3.333,3.276,3.276,0,0,0-.3-1.367,3.323,3.323,0,0,1,1.967,3.033Z" transform="translate(-4.393 -4.393)"/><path d="M57.4,12.308A.833.833,0,0,0,56.754,12h-.733V2.833A.833.833,0,0,0,55.188,2H38.521a.833.833,0,0,0-.833.833V12h-.733a.833.833,0,0,0-.642.308.824.824,0,0,0-.167.7l.725,3.333a.833.833,0,0,0,.817.658H56.021a.833.833,0,0,0,.817-.658l.725-3.333a.824.824,0,0,0-.167-.7ZM39.354,3.667h15V12H48.521a.833.833,0,0,0-.833.833H46.021A.833.833,0,0,0,45.188,12H39.354Zm16,11.667h-17L38,13.667h6.358a.833.833,0,0,0,.833.833h3.333a.833.833,0,0,0,.833-.833h6.358Z" transform="translate(-5.688 0)"/><path d="M17.833,42H4.5A2.507,2.507,0,0,0,2,44.5v8.333a2.507,2.507,0,0,0,2.5,2.5H7.658l-.558,2.3a.818.818,0,0,0,.15.717.833.833,0,0,0,.658.317h6.517a.833.833,0,0,0,.658-.317.818.818,0,0,0,.15-.717l-.558-2.3h3.158a2.508,2.508,0,0,0,2.5-2.5V44.5a2.508,2.508,0,0,0-2.5-2.5ZM8.967,57l.408-1.667h3.583L13.367,57Zm9.7-4.167a.833.833,0,0,1-.833.833H4.5a.833.833,0,0,1-.833-.833V52h15Zm0-2.5h-15V44.5a.833.833,0,0,1,.833-.833H17.833a.833.833,0,0,1,.833.833Z" transform="translate(0 -6.667)"/><path d="M57.167,40H50.5A2.507,2.507,0,0,0,48,42.5V55.833a2.507,2.507,0,0,0,2.5,2.5h6.667a2.508,2.508,0,0,0,2.5-2.5V42.5a2.508,2.508,0,0,0-2.5-2.5ZM55.5,41.667a.833.833,0,0,1-.833.833H53a.833.833,0,0,1-.833-.833ZM58,55.833a.833.833,0,0,1-.833.833H50.5a.833.833,0,0,1-.833-.833V42.5a.833.833,0,0,1,.833-.833,2.508,2.508,0,0,0,2.5,2.5h1.667a2.508,2.508,0,0,0,2.5-2.5A.833.833,0,0,1,58,42.5Z" transform="translate(-7.667 -6.333)"/><path d="M14.5,2H4.5A2.507,2.507,0,0,0,2,4.5V17.833a2.508,2.508,0,0,0,2.5,2.5h10a2.508,2.508,0,0,0,2.5-2.5V4.5A2.507,2.507,0,0,0,14.5,2Zm.833,15.833a.833.833,0,0,1-.833.833H4.5a.833.833,0,0,1-.833-.833V4.5A.833.833,0,0,1,4.5,3.667h10a.833.833,0,0,1,.833.833Z"/><path d="M10,18h1.667v1.667H10Z" transform="translate(-1.333 -2.667)"/><path d="M38.6,27.75l-2-.25,1.242-1.592a.828.828,0,0,0-.075-1.1l-2.242-2.242a.833.833,0,0,0-1.1-.075l-1.592,1.242-.25-2A.844.844,0,0,0,31.75,21H28.583a.844.844,0,0,0-.833.733l-.25,2-1.592-1.242a.833.833,0,0,0-1.1.075l-2.242,2.242a.828.828,0,0,0-.075,1.1L23.733,27.5l-2,.25a.844.844,0,0,0-.733.833V31.75a.844.844,0,0,0,.733.833l2,.25-1.242,1.592a.828.828,0,0,0,.075,1.1l2.242,2.242a.833.833,0,0,0,1.1.075L27.5,36.6l.25,2a.844.844,0,0,0,.833.733H31.75a.844.844,0,0,0,.833-.733l.25-2,1.592,1.242a.833.833,0,0,0,1.1-.075l2.242-2.242a.828.828,0,0,0,.075-1.1L36.6,32.833l2-.25a.844.844,0,0,0,.733-.833V28.583a.844.844,0,0,0-.733-.833Zm-.933,3.267-1.975.25a.82.82,0,0,0-.683.558c-.075.2-.158.4-.25.592a.816.816,0,0,0,.092.875l1.225,1.575-1.208,1.208L33.292,34.85a.816.816,0,0,0-.875-.092,6.466,6.466,0,0,1-.6.25.824.824,0,0,0-.55.683l-.25,1.975h-1.7l-.25-1.975a.824.824,0,0,0-.55-.683,6.465,6.465,0,0,1-.6-.25.816.816,0,0,0-.875.092l-1.575,1.225-1.208-1.208,1.225-1.575a.816.816,0,0,0,.092-.875c-.092-.192-.175-.392-.25-.592a.82.82,0,0,0-.683-.558l-1.975-.25v-1.7l1.975-.25a.82.82,0,0,0,.683-.558c.075-.2.158-.4.25-.592a.816.816,0,0,0-.092-.875l-1.225-1.575,1.208-1.208,1.575,1.225a.816.816,0,0,0,.875.092c.192-.092.392-.175.592-.25a.82.82,0,0,0,.558-.683l.25-1.975h1.7l.25,1.975a.82.82,0,0,0,.558.683c.2.075.4.158.592.25a.816.816,0,0,0,.875-.092l1.575-1.225,1.208,1.208L34.85,27.042a.816.816,0,0,0-.092.875c.092.192.175.392.25.592a.82.82,0,0,0,.683.558l1.975.25Z" transform="translate(-3.167 -3.167)"/><path d="M35.333,31.167a4.167,4.167,0,1,0-4.167,4.167,4.167,4.167,0,0,0,4.167-4.167Zm-4.167,2.5a2.5,2.5,0,1,1,2.5-2.5A2.5,2.5,0,0,1,31.167,33.667Z" transform="translate(-4.167 -4.167)"/><path d="M45,28.667v1.667h3.333a.833.833,0,0,0,.833-.833V22H47.5v6.667Z" transform="translate(-7.167 -3.333)"/><path d="M11,31.833V38.5h1.667V32.667h5V31H11.833A.833.833,0,0,0,11,31.833Z" transform="translate(-1.5 -4.833)"/><path d="M29.5,17.833h1.667v-5A.833.833,0,0,0,30.333,12H22v1.667h7.5Z" transform="translate(-3.333 -1.667)"/><path d="M32.667,45H31v6.667a.833.833,0,0,0,.833.833H43.5V50.833H32.667Z" transform="translate(-4.833 -7.167)"/></g></svg>