<svg xmlns="http://www.w3.org/2000/svg" width="50" height="50" viewBox="0 0 50 50"><defs><style>.a{fill:#fff;}.b{fill:#a998a4;}.c{fill:#ee3f5a;}.d{fill:#d5d5d5;}.e{fill:#e9e9e9;}</style></defs><g transform="translate(0.804 0.806)"><g transform="translate(17.744 19.194)"><path class="a" d="M49.629,27.59l-1.847-1.1a9.6,9.6,0,0,1-1.484.621l-.524,2.073H40.936l-.524-2.073a9.6,9.6,0,0,1-1.484-.621l-1.847,1.1-1.629-1.629H24V54.994H51.419V25.8Z" transform="translate(-24 -25.8)"/></g><g transform="translate(0.002 38.71)"><path class="b" d="M8.452,50v6.452H5.226a3.226,3.226,0,0,1,0-6.452Z" transform="translate(-2 -50)"/></g><g transform="translate(20.97 38.71)"><path class="b" d="M33.694,52.137a1.161,1.161,0,0,1,0,2.177L28,56.452V50Z" transform="translate(-28 -50)"/></g><g transform="translate(6.454 38.71)"><path class="a" d="M13.226,53.226v3.226H10V50h3.226Z" transform="translate(-10 -50)"/></g><g transform="translate(9.679 41.936)"><path class="c" d="M25.29,54v3.226H14V54Z" transform="translate(-14 -54)"/></g><g transform="translate(9.679 38.71)"><path class="c" d="M25.29,50v3.226H14V50H25.29Z" transform="translate(-14 -50)"/></g><g transform="translate(0 0)"><path class="b" d="M29.379,6.879l.081.081-.056.056,1.1,1.847a9.6,9.6,0,0,0-.621,1.484l-2.073.524V15.71l2.073.524a9.6,9.6,0,0,0,.621,1.484l-1.1,1.847,1.79,1.79H6.838A4.842,4.842,0,0,1,5.8,11.782a4.457,4.457,0,0,1,1.21-.1,7.677,7.677,0,0,1-.169-1.621,8.065,8.065,0,0,1,15.21-3.742,5.639,5.639,0,0,1,7.331.556Z" transform="translate(-1.997 -2)"/></g><g transform="translate(25.809)"><path class="d" d="M56.581,10.871V15.71l-2.073.524a9.605,9.605,0,0,1-.621,1.484l1.1,1.847-1.629,1.629-1.79,1.79-1.847-1.1a9.605,9.605,0,0,1-1.484.621l-.524,2.073H42.871l-.524-2.073a9.6,9.6,0,0,1-1.484-.621l-1.847,1.1-1.629-1.629-1.79-1.79,1.1-1.847a9.6,9.6,0,0,1-.621-1.484L34,15.71V10.871l2.073-.524a9.6,9.6,0,0,1,.621-1.484L35.6,7.016l.056-.056L39.016,3.6l1.847,1.1a9.6,9.6,0,0,1,1.484-.621L42.871,2H47.71l.524,2.073a9.6,9.6,0,0,1,1.484.621l1.847-1.1,3.419,3.419-1.1,1.847a9.6,9.6,0,0,1,.621,1.484ZM51.742,13.29a6.452,6.452,0,1,0-6.452,6.452A6.45,6.45,0,0,0,51.742,13.29Z" transform="translate(-34 -2)"/></g><g transform="translate(30.647 4.839)"><path class="e" d="M46.452,8A6.452,6.452,0,1,1,40,14.452,6.45,6.45,0,0,1,46.452,8Zm3.226,6.452a3.226,3.226,0,1,0-3.226,3.226A3.225,3.225,0,0,0,49.677,14.452Z" transform="translate(-40 -8)"/></g></g><g transform="translate(0 0)"><path d="M51,16.143V10.05l-2.26-.575c-.1-.257-.2-.515-.323-.772L49.611,6.7,45.3,2.388,43.3,3.581c-.256-.119-.515-.227-.771-.323L41.949,1H35.857l-.574,2.26c-.256.1-.515.2-.771.323L32.5,2.389,29.24,5.653a6.446,6.446,0,0,0-7.127-.643A8.859,8.859,0,0,0,5.839,9.871c0,.289.02.577.048.864-.149.019-.3.037-.448.069A5.647,5.647,0,0,0,6.645,21.968H13.1a.807.807,0,0,1,.806.806v1.613a.807.807,0,0,1-.806.806H7.452a2.419,2.419,0,1,0,0,4.839H14.71a.807.807,0,0,1,.806.806V39.71H5.032a4.032,4.032,0,0,0,0,8.065h13.71V51H47.774V21.333L49.611,19.5l-1.193-2.007c.119-.256.227-.514.323-.771ZM14.71,28.419H7.452a.806.806,0,1,1,0-1.613H13.1a2.422,2.422,0,0,0,2.419-2.419V22.774A2.422,2.422,0,0,0,13.1,20.355H6.645a4.019,4.019,0,0,1-3.131-1.491,4.074,4.074,0,0,1-.81-3.418,4.006,4.006,0,0,1,3.065-3.064,4.066,4.066,0,0,1,3.418.81,4.019,4.019,0,0,1,1.491,3.131H12.29a5.624,5.624,0,0,0-4.782-5.571,7.246,7.246,0,0,1,13.3-4.791,6.428,6.428,0,0,0-2.065,4.717h1.613a4.832,4.832,0,0,1,8.071-3.593l.963,1.62q-.178.385-.323.772l-2.26.574v6.093l2.26.575c.1.257.2.515.323.771L28.2,19.5l.858.858H17.129v1.613h1.613V39.71H17.129V30.839a2.422,2.422,0,0,0-2.419-2.419ZM10.677,46.161H9.065V41.323h1.613Zm1.613-1.613h9.677v1.613H12.29Zm11.29-2.869,4.607,1.727a.357.357,0,0,1,0,.669L23.581,45.8Zm-1.613,1.256H12.29V41.323h9.677Zm-19.355.806a2.422,2.422,0,0,1,2.419-2.419H7.452v4.839H5.032A2.422,2.422,0,0,1,2.613,43.742Zm43.548,5.645H20.355V47.774h2.566l5.832-2.187a1.971,1.971,0,0,0,0-3.69L22.921,39.71H20.355V21.968H30.667L32.5,23.8l2.007-1.194c.256.119.515.227.771.323l.575,2.26H41.95l.575-2.26c.256-.1.515-.2.771-.323L45.3,23.8l.858-.859Zm1.327-34.015-.135.426a8.876,8.876,0,0,1-.568,1.357l-.206.4,1,1.69-2.535,2.535-1.69-1-.4.2a8.853,8.853,0,0,1-1.36.568l-.426.136-.481,1.9H37.111l-.482-1.9-.426-.136a8.854,8.854,0,0,1-1.36-.568l-.4-.2-1.69,1-2.535-2.535,1-1.69-.206-.4a8.876,8.876,0,0,1-.568-1.357l-.135-.426-1.9-.483V11.3l1.9-.483.135-.426a8.835,8.835,0,0,1,.569-1.357l.206-.4-1-1.69,2.535-2.535,1.69,1,.4-.2a8.853,8.853,0,0,1,1.36-.568l.426-.136.481-1.9H40.7l.482,1.9.426.136a8.853,8.853,0,0,1,1.36.568l.4.2,1.69-1L47.584,6.95l-1,1.69.206.4a8.867,8.867,0,0,1,.569,1.357l.135.426,1.9.484v3.585Z" transform="translate(-1 -1)"/><path d="M46.258,7a7.258,7.258,0,1,0,7.258,7.258A7.266,7.266,0,0,0,46.258,7Zm0,12.9A5.645,5.645,0,1,1,51.9,14.258,5.652,5.652,0,0,1,46.258,19.9Z" transform="translate(-8.355 -2.161)"/><path d="M47.032,11a4.032,4.032,0,1,0,4.032,4.032A4.037,4.037,0,0,0,47.032,11Zm0,6.452a2.419,2.419,0,1,1,2.419-2.419A2.422,2.422,0,0,1,47.032,17.452Z" transform="translate(-9.129 -2.935)"/><path d="M28.476,43.755l-1.043-1.043-1.14,1.14,2.183,2.183,4.6-4.6-1.14-1.14Z" transform="translate(-5.895 -8.605)"/><path d="M28.476,35.755l-1.043-1.043-1.14,1.14,2.183,2.183,4.6-4.6-1.14-1.14Z" transform="translate(-5.895 -7.057)"/><path d="M37,33H51.516v1.613H37Z" transform="translate(-7.968 -7.193)"/><path d="M41,37H52.29v1.613H41Z" transform="translate(-8.742 -7.968)"/><path d="M37,37h1.613v1.613H37Z" transform="translate(-7.968 -7.968)"/><path d="M37,41H51.516v1.613H37Z" transform="translate(-7.968 -8.742)"/><path d="M53,45h1.613v1.613H53Z" transform="translate(-11.064 -9.516)"/><path d="M37,45H48.29v1.613H37Z" transform="translate(-7.968 -9.516)"/><path d="M41.419,51a2.419,2.419,0,1,0,2.419,2.419A2.422,2.422,0,0,0,41.419,51Zm0,3.226a.806.806,0,1,1,.806-.806A.807.807,0,0,1,41.419,54.226Z" transform="translate(-8.355 -10.677)"/><path d="M49.419,51a2.419,2.419,0,1,0,2.419,2.419A2.422,2.422,0,0,0,49.419,51Zm0,3.226a.806.806,0,1,1,.806-.806A.807.807,0,0,1,49.419,54.226Z" transform="translate(-9.903 -10.677)"/></g></svg>